<svg width="44" height="44" viewBox="0 0 44 44" fill="none" xmlns="http://www.w3.org/2000/svg">
<g clip-path="url(#clip0_450_1873)">
<path fill-rule="evenodd" clip-rule="evenodd" d="M21.2369 37.019H22.7632C26.2092 37.019 28.576 37.0156 30.396 36.838C32.1688 36.665 33.0996 36.3494 33.7678 35.9254C34.6248 35.3816 35.3522 34.6588 35.8994 33.8072C36.3262 33.1432 36.6436 32.2182 36.8178 30.4566C36.9966 28.6482 37 26.2964 37 22.8722C37 18.7394 36.9526 17.4583 36.533 16.3747C36.2976 15.7668 35.9774 15.1947 35.5818 14.6752C34.8768 13.7495 33.8064 13.0337 30.273 10.8537L29.9126 10.6312C27.8242 9.34274 26.411 8.47362 25.2436 7.88054C24.1216 7.3105 23.4098 7.09418 22.7764 7.02394C22.2604 6.96672 21.7396 6.96672 21.2237 7.02394C20.5902 7.09418 19.8784 7.3105 18.7564 7.88054C17.5889 8.47362 16.1757 9.34274 14.0875 10.6312L13.7269 10.8537C10.1936 13.0337 9.12324 13.7495 8.41818 14.6752C8.02258 15.1947 7.70238 15.7668 7.46696 16.3747C7.04738 17.4583 7 18.7394 7 22.8722C7 26.2964 7.00338 28.6482 7.18216 30.4566C7.35632 32.2182 7.67376 33.1432 8.10058 33.8072C8.64786 34.6588 9.37524 35.3816 10.2321 35.9254C10.9004 36.3494 11.8313 36.665 13.6041 36.838C15.424 37.0156 17.7908 37.019 21.2369 37.019ZM4.66708 15.3042C4 17.0269 4 18.9753 4 22.8722C4 29.6012 4 32.9658 5.57226 35.4118C6.3541 36.6282 7.3932 37.6608 8.61732 38.4376C11.079 40 14.465 40 21.2369 40H22.7632C29.535 40 32.921 40 35.3826 38.4376C36.6068 37.6608 37.646 36.6282 38.4278 35.4118C40 32.9658 40 29.6012 40 22.8722C40 18.9753 40 17.0269 39.333 15.3042C38.9966 14.4357 38.5392 13.6184 37.974 12.8763C36.853 11.4045 35.1872 10.3767 31.8556 8.3211L31.495 8.09864C27.4018 5.5731 25.355 4.31034 23.109 4.0613C22.372 3.97957 21.628 3.97957 20.891 4.0613C18.645 4.31034 16.5983 5.5731 12.505 8.09864L12.1444 8.3211C8.81274 10.3767 7.1469 11.4045 6.02598 12.8763C5.46084 13.6184 5.0034 14.4357 4.66708 15.3042Z" fill="url(#paint0_linear_450_1873)"/>
<path fill-rule="evenodd" clip-rule="evenodd" d="M14 30C14 28.8952 14.7164 28 15.6 28H28.4C29.2836 28 30 28.8952 30 30C30 31.1045 29.2836 32 28.4 32H15.6C14.7164 32 14 31.1045 14 30Z" fill="url(#paint1_linear_450_1873)"/>
</g>
<defs>
<linearGradient id="paint0_linear_450_1873" x1="9.14286" y1="11.0714" x2="36.9071" y2="34.4735" gradientUnits="userSpaceOnUse">
<stop stop-color="#FDFDFD"/>
<stop offset="1" stop-color="#FDFDFD" stop-opacity="0"/>
</linearGradient>
<linearGradient id="paint1_linear_450_1873" x1="15.3333" y1="26.6667" x2="16.6985" y2="33.6672" gradientUnits="userSpaceOnUse">
<stop stop-color="#FDFDFD"/>
<stop offset="1" stop-color="#FDFDFD" stop-opacity="0"/>
</linearGradient>
<clipPath id="clip0_450_1873">
<rect width="44" height="44" fill="white"/>
</clipPath>
</defs>
</svg>
